<svg width="70" height="70" viewBox="0 0 70 70" fill="none" xmlns="http://www.w3.org/2000/svg">
<circle cx="35" cy="35" r="35" fill="#A2ACBD"/>
<path d="M34.9993 14.166C23.5202 14.166 14.166 23.5202 14.166 34.9993C14.166 46.4785 23.5202 55.8327 34.9993 55.8327C46.4785 55.8327 55.8327 46.4785 55.8327 34.9993C55.8327 23.5202 46.4785 14.166 34.9993 14.166ZM34.9993 51.666C25.8118 51.666 18.3327 44.1868 18.3327 34.9993C18.3327 25.8118 25.8118 18.3327 34.9993 18.3327C44.1868 18.3327 51.666 25.8118 51.666 34.9993C51.666 44.1868 44.1868 51.666 34.9993 51.666ZM41.2493 34.9993C41.2493 38.4577 38.4577 41.2493 34.9993 41.2493C31.541 41.2493 28.7493 38.4577 28.7493 34.9993C28.7493 31.541 31.541 28.7493 34.9993 28.7493C38.4577 28.7493 41.2493 31.541 41.2493 34.9993Z" fill="white"/>
</svg>
