<svg width="1157" height="188" viewBox="0 0 1157 188" fill="none" xmlns="http://www.w3.org/2000/svg">
<path d="M173.852 128.04C173.852 129.747 173.239 131.213 172.012 132.44C170.839 133.613 169.399 134.2 167.692 134.2C165.985 134.2 164.519 133.613 163.292 132.44C162.119 131.213 161.532 129.747 161.532 128.04C161.532 126.333 162.119 124.893 163.292 123.72C164.519 122.493 165.985 121.88 167.692 121.88C169.399 121.88 170.839 122.493 172.012 123.72C173.239 124.893 173.852 126.333 173.852 128.04ZM184.732 165.24C184.732 167.8 183.132 169.08 179.932 169.08C176.785 169.08 175.212 167.8 175.212 165.24V104.92C175.212 102.36 176.785 101.08 179.932 101.08C183.132 101.08 184.732 102.36 184.732 104.92V165.24ZM160.092 127.64C160.092 128.867 159.719 129.987 158.972 131C158.279 131.96 156.972 132.44 155.052 132.44H134.172C133.799 132.44 133.585 132.52 133.532 132.68C133.479 132.84 133.452 133.027 133.452 133.24V149.08C133.452 149.293 133.505 149.48 133.612 149.64C133.772 149.8 133.959 149.88 134.172 149.88C137.319 150.04 142.039 149.453 148.332 148.12C154.679 146.733 159.639 145.293 163.212 143.8C165.239 142.893 166.785 143.72 167.852 146.28C168.919 148.84 168.119 150.76 165.452 152.04C162.039 153.693 156.865 155.267 149.932 156.76C143.052 158.2 136.065 158.84 128.972 158.68C127.639 158.627 126.465 158.12 125.452 157.16C124.439 156.2 123.932 155.107 123.932 153.88V129.16C123.932 127.933 124.279 126.84 124.972 125.88C125.719 124.867 127.052 124.36 128.972 124.36H149.852C150.225 124.36 150.439 124.28 150.492 124.12C150.545 123.96 150.572 123.773 150.572 123.56V111.72C150.572 111.507 150.545 111.32 150.492 111.16C150.439 111 150.225 110.92 149.852 110.92H126.972C124.999 110.92 123.985 109.587 123.932 106.92C123.932 104.2 124.945 102.84 126.972 102.84H155.052C156.972 102.84 158.279 103.347 158.972 104.36C159.719 105.32 160.092 106.413 160.092 107.64V127.64ZM258.986 165.24C258.986 167.8 257.386 169.08 254.186 169.08C251.039 169.08 249.466 167.8 249.466 165.24V104.92C249.466 102.36 251.039 101.08 254.186 101.08C257.386 101.08 258.986 102.36 258.986 104.92V165.24ZM236.186 127.64C236.186 128.867 235.812 129.987 235.066 131C234.372 131.96 233.066 132.44 231.146 132.44H210.266C209.892 132.44 209.679 132.52 209.626 132.68C209.572 132.84 209.546 133.027 209.546 133.24V149.08C209.546 149.293 209.599 149.48 209.706 149.64C209.866 149.8 210.052 149.88 210.266 149.88C213.412 150.04 218.132 149.453 224.426 148.12C230.772 146.733 235.732 145.293 239.306 143.8C241.332 142.893 242.879 143.72 243.946 146.28C245.012 148.84 244.212 150.76 241.546 152.04C238.132 153.693 232.959 155.267 226.026 156.76C219.146 158.2 212.159 158.84 205.066 158.68C203.732 158.627 202.559 158.12 201.546 157.16C200.532 156.2 200.026 155.107 200.026 153.88V129.16C200.026 127.933 200.372 126.84 201.066 125.88C201.812 124.867 203.146 124.36 205.066 124.36H225.946C226.319 124.36 226.532 124.28 226.586 124.12C226.639 123.96 226.666 123.773 226.666 123.56V111.72C226.666 111.507 226.639 111.32 226.586 111.16C226.532 111 226.319 110.92 225.946 110.92H203.066C201.092 110.92 200.079 109.587 200.026 106.92C200.026 104.2 201.039 102.84 203.066 102.84H231.146C233.066 102.84 234.372 103.347 235.066 104.36C235.812 105.32 236.186 106.413 236.186 107.64V127.64ZM323.044 165.24C323.044 167.8 321.444 169.08 318.244 169.08C315.098 169.08 313.524 167.8 313.524 165.24V133.16H307.524C307.204 139.72 305.764 145.453 303.204 150.36C300.271 155.96 295.898 158.76 290.084 158.76C284.164 158.76 279.738 155.987 276.804 150.44C273.871 144.893 272.404 138.2 272.404 130.36C272.404 122.52 273.871 115.827 276.804 110.28C279.738 104.733 284.164 101.96 290.084 101.96C295.898 101.96 300.271 104.76 303.204 110.36C305.444 114.627 306.831 119.533 307.364 125.08H307.524H313.524V104.92C313.524 102.36 315.098 101.08 318.244 101.08C321.444 101.08 323.044 102.36 323.044 104.92V165.24ZM338.884 165.24C338.884 167.8 337.284 169.08 334.084 169.08C330.938 169.08 329.364 167.8 329.364 165.24V104.92C329.364 102.36 330.938 101.08 334.084 101.08C337.284 101.08 338.884 102.36 338.884 104.92V165.24ZM298.164 130.36C298.164 124.653 297.551 119.853 296.324 115.96C295.151 112.013 293.071 110.04 290.084 110.04C286.991 110.04 284.858 112.013 283.684 115.96C282.511 119.853 281.924 124.653 281.924 130.36C281.924 136.067 282.538 140.893 283.764 144.84C284.991 148.733 287.098 150.68 290.084 150.68C293.018 150.68 295.098 148.733 296.324 144.84C297.551 140.893 298.164 136.067 298.164 130.36ZM395.813 152.44C396.666 154.893 395.6 156.627 392.613 157.64C389.626 158.653 387.706 157.933 386.853 155.48L371.893 110.52L356.933 155.48C356.08 157.933 354.16 158.653 351.173 157.64C348.186 156.627 347.12 154.893 347.973 152.44L363.653 105.24C364.506 102.787 366.426 102.093 369.413 103.16C370.48 103.587 371.28 104.067 371.813 104.6C372.4 104.067 373.253 103.587 374.373 103.16C377.36 102.093 379.28 102.787 380.133 105.24L395.813 152.44ZM413.013 165.24C413.013 167.8 411.413 169.08 408.213 169.08C405.066 169.08 403.493 167.8 403.493 165.24V104.92C403.493 102.36 405.066 101.08 408.213 101.08C411.413 101.08 413.013 102.36 413.013 104.92V165.24ZM401.573 126.44C401.573 128.147 400.96 129.613 399.733 130.84C398.56 132.013 397.12 132.6 395.413 132.6C393.706 132.6 392.24 132.013 391.013 130.84C389.84 129.613 389.253 128.147 389.253 126.44C389.253 124.733 389.84 123.293 391.013 122.12C392.24 120.893 393.706 120.28 395.413 120.28C397.12 120.28 398.56 120.893 399.733 122.12C400.96 123.293 401.573 124.733 401.573 126.44ZM500.291 165.24C500.291 167.8 498.691 169.08 495.491 169.08C492.345 169.08 490.771 167.8 490.771 165.24V104.92C490.771 102.36 492.345 101.08 495.491 101.08C498.691 101.08 500.291 102.36 500.291 104.92V126.36H504.691C506.078 126.36 506.985 127.027 507.411 128.36V104.92C507.411 102.36 508.985 101.08 512.131 101.08C515.331 101.08 516.931 102.36 516.931 104.92V165.24C516.931 167.8 515.331 169.08 512.131 169.08C508.985 169.08 507.411 167.8 507.411 165.24V132.52C506.985 133.8 506.078 134.44 504.691 134.44H500.291V165.24ZM475.091 105.88C475.091 103.32 476.665 102.04 479.811 102.04C483.011 102.04 484.611 103.32 484.611 105.88V153.8C484.611 156.36 483.011 157.667 479.811 157.72C476.665 157.72 475.091 156.413 475.091 153.8V129.64H465.491C463.518 129.64 462.505 128.307 462.451 125.64C462.451 122.92 463.465 121.56 465.491 121.56H475.091V105.88ZM452.291 105.88C452.291 103.32 453.865 102.04 457.011 102.04C460.211 102.04 461.811 103.32 461.811 105.88V148.84C461.811 149.053 461.838 149.24 461.891 149.4C461.945 149.56 462.158 149.64 462.531 149.64H470.211C472.238 149.64 473.225 151 473.171 153.72C473.171 156.387 472.185 157.72 470.211 157.72H457.331C455.411 157.72 454.078 157.24 453.331 156.28C452.638 155.267 452.291 154.147 452.291 152.92V105.88ZM565.62 165.24C565.62 167.8 564.02 169.08 560.82 169.08C557.673 169.08 556.1 167.8 556.1 165.24V148.76C556.1 148.547 556.073 148.36 556.02 148.2C555.967 148.04 555.753 147.96 555.38 147.96H528.74C526.767 147.96 525.753 146.627 525.7 143.96C525.7 141.24 526.713 139.88 528.74 139.88H560.58C562.5 139.88 563.807 140.387 564.5 141.4C565.247 142.36 565.62 143.453 565.62 144.68V165.24ZM579.62 118.76C579.62 123.667 577.673 127.907 573.78 131.48C569.94 135 565.247 136.76 559.7 136.76C554.047 136.76 549.273 135 545.38 131.48C541.54 127.96 539.62 123.72 539.62 118.76C539.62 113.8 541.54 109.56 545.38 106.04C549.273 102.52 554.047 100.76 559.7 100.76C565.247 100.76 569.94 102.547 573.78 106.12C577.673 109.64 579.62 113.853 579.62 118.76ZM570.1 118.76C570.1 115.987 569.06 113.64 566.98 111.72C564.953 109.8 562.527 108.84 559.7 108.84C556.82 108.84 554.367 109.8 552.34 111.72C550.313 113.64 549.3 115.987 549.3 118.76C549.3 121.533 550.313 123.88 552.34 125.8C554.367 127.72 556.82 128.68 559.7 128.68C562.527 128.68 564.953 127.72 566.98 125.8C569.06 123.88 570.1 121.533 570.1 118.76ZM602.753 127.48C600.833 127.48 599.499 127 598.753 126.04C598.059 125.027 597.713 123.907 597.713 122.68V105.16C597.713 102.6 599.286 101.32 602.433 101.32C605.633 101.32 607.233 102.6 607.233 105.16V118.6C607.233 118.813 607.259 119 607.312 119.16C607.366 119.32 607.579 119.4 607.953 119.4H644.433C646.513 119.4 647.526 120.76 647.473 123.48C647.419 126.147 646.379 127.48 644.353 127.48H602.753ZM607.633 170.92C605.713 170.92 604.379 170.413 603.633 169.4C602.939 168.44 602.593 167.347 602.593 166.12V149.56C602.593 147 604.166 145.72 607.312 145.72C610.513 145.72 612.113 147 612.113 149.56V162.04C612.113 162.253 612.139 162.44 612.193 162.6C612.246 162.76 612.459 162.84 612.833 162.84H647.953C650.033 162.84 651.046 164.2 650.993 166.92C650.939 169.587 649.899 170.92 647.873 170.92H607.633ZM591.553 142.76C589.579 142.76 588.566 141.427 588.513 138.76C588.513 136.04 589.526 134.68 591.553 134.68H651.633C653.713 134.68 654.726 136.04 654.673 138.76C654.673 141.427 653.659 142.76 651.633 142.76H591.553Z" fill="#11235A"/>
<path d="M858.376 152.44C859.229 154.893 858.162 156.627 855.176 157.64C852.189 158.653 850.269 157.933 849.416 155.48L834.456 110.52L819.496 155.48C818.642 157.933 816.722 158.653 813.736 157.64C810.749 156.627 809.682 154.893 810.536 152.44L826.216 105.24C827.069 102.787 828.989 102.093 831.976 103.16C833.042 103.587 833.842 104.067 834.376 104.6C834.962 104.067 835.816 103.587 836.936 103.16C839.922 102.093 841.842 102.787 842.696 105.24L858.376 152.44ZM870.536 165.24C870.536 167.8 868.936 169.08 865.736 169.08C862.589 169.08 861.016 167.8 861.016 165.24V104.92C861.016 102.36 862.589 101.08 865.736 101.08C868.936 101.08 870.536 102.36 870.536 104.92V165.24ZM885.496 129.64C885.496 131.347 884.882 132.813 883.656 134.04C882.482 135.213 881.042 135.8 879.336 135.8C877.629 135.8 876.162 135.213 874.936 134.04C873.762 132.813 873.176 131.347 873.176 129.64C873.176 127.933 873.762 126.493 874.936 125.32C876.162 124.093 877.629 123.48 879.336 123.48C881.042 123.48 882.482 124.093 883.656 125.32C884.882 126.493 885.496 127.933 885.496 129.64Z" fill="#11235A"/>
<path d="M1133.98 165.24C1133.98 167.8 1132.38 169.08 1129.18 169.08C1126.03 169.08 1124.46 167.8 1124.46 165.24V104.92C1124.46 102.36 1126.03 101.08 1129.18 101.08C1132.38 101.08 1133.98 102.36 1133.98 104.92V127.16H1139.98C1140.78 127.16 1141.42 127.373 1141.9 127.8V104.92C1141.9 102.36 1143.47 101.08 1146.62 101.08C1149.82 101.08 1151.42 102.36 1151.42 104.92V165.24C1151.42 167.8 1149.82 169.08 1146.62 169.08C1143.47 169.08 1141.9 167.8 1141.9 165.24V134.6C1141.42 135.027 1140.78 135.24 1139.98 135.24H1133.98V165.24ZM1086.78 107.64C1086.78 106.413 1087.12 105.32 1087.82 104.36C1088.56 103.347 1089.9 102.84 1091.82 102.84H1114.54C1116.56 102.84 1117.55 104.2 1117.5 106.92C1117.5 109.587 1116.51 110.92 1114.54 110.92H1097.02C1096.64 110.92 1096.43 111 1096.38 111.16C1096.32 111.32 1096.3 111.507 1096.3 111.72V148.36C1096.3 148.573 1096.35 148.787 1096.46 149C1096.62 149.16 1096.8 149.213 1097.02 149.16C1100 148.733 1103.34 147.88 1107.02 146.6C1110.7 145.32 1114.32 143.613 1117.9 141.48C1120.24 140.093 1121.95 140.813 1123.02 143.64C1124.14 146.413 1123.44 148.413 1120.94 149.64C1117.36 151.4 1113.44 153.133 1109.18 154.84C1104.91 156.547 1099.12 157.827 1091.82 158.68C1090.48 158.84 1089.31 158.387 1088.3 157.32C1087.28 156.253 1086.78 155.107 1086.78 153.88V107.64Z" fill="#11235A"/>
<path d="M114.12 100C114.12 101.84 113.56 103.52 112.44 105.04C111.4 106.48 109.44 107.2 106.56 107.2H58.2C57.64 107.2 57.32 107.32 57.24 107.56C57.16 107.8 57.12 108.08 57.12 108.4V113.32C57.12 113.64 57.16 113.92 57.24 114.16C57.32 114.4 57.64 114.52 58.2 114.52H112.68C115.72 114.52 117.2 116.52 117.12 120.52C117.12 124.6 115.64 126.64 112.68 126.64H50.4C47.52 126.64 45.52 125.88 44.4 124.36C43.36 122.92 42.84 121.28 42.84 119.44V102.28C42.84 100.44 43.36 98.8 44.4 97.36C45.52 95.84 47.52 95.08 50.4 95.08H98.76C99.32 95.08 99.64 94.96 99.72 94.72C99.8 94.48 99.84 94.2 99.84 93.88V88.96C99.84 88.64 99.8 88.36 99.72 88.12C99.64 87.88 99.32 87.76 98.76 87.76H46.68C43.72 87.76 42.2 85.76 42.12 81.76C42.12 77.68 43.64 75.64 46.68 75.64H106.56C109.44 75.64 111.4 76.4 112.44 77.92C113.56 79.36 114.12 81 114.12 82.84V100ZM56.64 43.12C56.64 49.6 53.84 57.88 48.24 67.96C42.64 78.04 30.96 86.36 13.2 92.92C8.8 94.52 5.72 93.44 3.96 89.68C2.28 85.92 3.04 83.48 6.24 82.36C15.2 79.16 23.44 73.96 30.96 66.76C38.56 59.56 42.36 51.64 42.36 43V35.08C42.36 34.76 42.32 34.48 42.24 34.24C42.16 34 41.84 33.88 41.28 33.88H10.44C7.48 33.88 5.96 31.88 5.88 27.88C5.88 23.8 7.4 21.76 10.44 21.76H49.08C51.96 21.76 53.92 22.52 54.96 24.04C56.08 25.48 56.64 27.12 56.64 28.96V43.12ZM81.36 67.24C81.36 71.08 78.96 73 74.16 73C69.44 73 67.08 71.08 67.08 67.24V24.88C67.08 21.04 69.44 19.12 74.16 19.12C78.96 19.12 81.36 21.04 81.36 24.88V39.76H88.44C89.64 39.76 90.6 40.08 91.32 40.72V24.88C91.32 21.04 93.68 19.12 98.4 19.12C103.2 19.12 105.6 21.04 105.6 24.88V67.24C105.6 71.08 103.2 73 98.4 73C93.68 73 91.32 71.08 91.32 67.24V50.92C90.6 51.56 89.64 51.88 88.44 51.88H81.36V67.24Z" fill="black"/>
<path d="M803.79 119.68C803.79 123.52 801.39 125.44 796.59 125.44C791.87 125.44 789.51 123.52 789.51 119.68V96.04C789.51 95.72 789.47 95.44 789.39 95.2C789.31 94.96 788.99 94.84 788.43 94.84H737.43C734.47 94.84 732.95 92.84 732.87 88.84C732.87 84.76 734.39 82.72 737.43 82.72H796.23C799.11 82.72 801.07 83.48 802.11 85C803.23 86.44 803.79 88.08 803.79 89.92V119.68ZM795.27 74.32C795.27 78.16 792.87 80.08 788.07 80.08C783.35 80.08 780.99 78.16 780.99 74.32V24.88C780.99 21.04 783.35 19.12 788.07 19.12C792.87 19.12 795.27 21.04 795.27 24.88V74.32ZM778.83 37.96C778.83 40.44 777.99 42.52 776.31 44.2C774.63 45.88 772.55 46.72 770.07 46.72C767.59 46.72 765.51 45.88 763.83 44.2C762.15 42.52 761.31 40.44 761.31 37.96C761.31 35.48 762.15 33.4 763.83 31.72C765.51 30.04 767.59 29.2 770.07 29.2C772.55 29.2 774.63 30.04 776.31 31.72C777.99 33.4 778.83 35.48 778.83 37.96ZM778.83 61.96C778.83 64.44 777.99 66.52 776.31 68.2C774.63 69.88 772.55 70.72 770.07 70.72C767.59 70.72 765.51 69.88 763.83 68.2C762.15 66.52 761.31 64.44 761.31 61.96C761.31 59.48 762.15 57.4 763.83 55.72C765.51 54.04 767.59 53.2 770.07 53.2C772.55 53.2 774.63 54.04 776.31 55.72C777.99 57.4 778.83 59.48 778.83 61.96ZM761.31 51.52C761.31 60 758.39 67.28 752.55 73.36C746.79 79.44 739.75 82.48 731.43 82.48C722.95 82.48 715.79 79.48 709.95 73.48C704.19 67.4 701.31 60.08 701.31 51.52C701.31 42.96 704.19 35.68 709.95 29.68C715.79 23.6 722.95 20.56 731.43 20.56C739.75 20.56 746.79 23.6 752.55 29.68C758.39 35.68 761.31 42.96 761.31 51.52ZM747.27 51.52C747.27 46.32 745.71 41.88 742.59 38.2C739.55 34.52 735.83 32.68 731.43 32.68C727.03 32.68 723.27 34.52 720.15 38.2C717.11 41.88 715.59 46.32 715.59 51.52C715.59 56.72 717.11 61.16 720.15 64.84C723.27 68.52 727.03 70.36 731.43 70.36C735.83 70.36 739.55 68.52 742.59 64.84C745.71 61.16 747.27 56.72 747.27 51.52Z" fill="black"/>
<path d="M1046.38 96.16C1047.66 99.84 1046.06 102.44 1041.58 103.96C1037.1 105.48 1034.22 104.4 1032.94 100.72L1010.5 33.28L988.056 100.72C986.776 104.4 983.896 105.48 979.416 103.96C974.936 102.44 973.336 99.84 974.616 96.16L998.136 25.36C999.416 21.68 1002.3 20.64 1006.78 22.24C1008.38 22.88 1009.58 23.6 1010.38 24.4C1011.26 23.6 1012.54 22.88 1014.22 22.24C1018.7 20.64 1021.58 21.68 1022.86 25.36L1046.38 96.16ZM1069.42 115.36C1069.42 119.2 1067.02 121.12 1062.22 121.12C1057.5 121.12 1055.14 119.2 1055.14 115.36V24.88C1055.14 21.04 1057.5 19.12 1062.22 19.12C1067.02 19.12 1069.42 21.04 1069.42 24.88V115.36Z" fill="black"/>
</svg>
