<svg width="70" height="70" viewBox="0 0 70 70" fill="none" xmlns="http://www.w3.org/2000/svg">
<circle cx="35" cy="35" r="35" fill="#008038"/>
<path d="M34.9993 14.166C23.4993 14.166 14.166 23.4993 14.166 34.9993C14.166 46.4993 23.4993 55.8327 34.9993 55.8327C46.4993 55.8327 55.8327 46.4993 55.8327 34.9993C55.8327 23.4993 46.4993 14.166 34.9993 14.166ZM34.9993 51.666C25.8118 51.666 18.3327 44.1868 18.3327 34.9993C18.3327 25.8118 25.8118 18.3327 34.9993 18.3327C44.1868 18.3327 51.666 25.8118 51.666 34.9993C51.666 44.1868 44.1868 51.666 34.9993 51.666ZM44.5618 25.791L30.8327 39.5202L25.4368 34.1452L22.4993 37.0827L30.8327 45.416L47.4993 28.7493L44.5618 25.791Z" fill="white"/>
</svg>
