<svg width="70" height="70" viewBox="0 0 70 70" fill="none" xmlns="http://www.w3.org/2000/svg">
<circle cx="35" cy="35" r="35" fill="#BB443F"/>
<path d="M34.9993 14.166C23.4785 14.166 14.166 23.4785 14.166 34.9993C14.166 46.5202 23.4785 55.8327 34.9993 55.8327C46.5202 55.8327 55.8327 46.5202 55.8327 34.9993C55.8327 23.4785 46.5202 14.166 34.9993 14.166ZM34.9993 51.666C25.8118 51.666 18.3327 44.1868 18.3327 34.9993C18.3327 25.8118 25.8118 18.3327 34.9993 18.3327C44.1868 18.3327 51.666 25.8118 51.666 34.9993C51.666 44.1868 44.1868 51.666 34.9993 51.666ZM42.4785 24.5827L34.9993 32.0618L27.5202 24.5827L24.5827 27.5202L32.0618 34.9993L24.5827 42.4785L27.5202 45.416L34.9993 37.9368L42.4785 45.416L45.416 42.4785L37.9368 34.9993L45.416 27.5202L42.4785 24.5827Z" fill="white"/>
</svg>
