<svg width="80" height="64" viewBox="0 0 80 64" fill='none' xmlns="http://www.w3.org/2000/svg">
<path d="M40 5.33398C21.6 5.33398 6.66667 17.2807 6.66667 32.0007C6.66667 46.7207 21.6 58.6673 40 58.6673C58.4 58.6673 73.3333 46.7207 73.3333 32.0007C73.3333 17.2807 58.4 5.33398 40 5.33398ZM40 53.334C25.3 53.334 13.3333 43.7607 13.3333 32.0007C13.3333 20.2407 25.3 10.6673 40 10.6673C54.7 10.6673 66.6667 20.2407 66.6667 32.0007C66.6667 43.7607 54.7 53.334 40 53.334ZM55.3 20.214L33.3333 37.7873L24.7 30.9073L20 34.6673L33.3333 45.334L60 24.0007L55.3 20.214Z" fill="black"/>
</svg>
